<svg xmlns="http://www.w3.org/2000/svg" height="572pt" version="1.1" viewBox="0 0 572.41952 572" width="572pt">
<g id="surface1">
<path d="M 483.242188 158.003906 C 483.242188 119.875 452.335938 88.96875 414.21875 88.957031 C 395.902344 88.957031 378.339844 96.226562 365.390625 109.1875 L 147.933594 325.65625 L 246.550781 424.277344 L 463.023438 206.820312 C 475.992188 193.878906 483.261719 176.316406 483.242188 158.003906 Z M 483.242188 158.003906 " style=" stroke:none;fill-rule:nonzero;fill:rgb(81.568627%,84.313725%,87.45098%);fill-opacity:1;" />
<path d="M 483.242188 158.003906 C 483.242188 196.128906 452.335938 227.039062 414.207031 227.039062 C 376.082031 227.039062 345.171875 196.128906 345.171875 158.003906 C 345.171875 119.875 376.082031 88.96875 414.207031 88.96875 C 452.335938 88.96875 483.242188 119.875 483.242188 158.003906 Z M 483.242188 158.003906 " style=" stroke:none;fill-rule:nonzero;fill:rgb(76.470588%,78.823529%,81.960784%);fill-opacity:1;" />
<path d="M 0 88.96875 L 88.757812 0.210938 L 246.542969 157.996094 L 157.785156 246.753906 Z M 0 88.96875 " style=" stroke:none;fill-rule:nonzero;fill:rgb(16.470588%,56.470588%,87.058824%);fill-opacity:1;" />
<path d="M 133.132812 399.625 L 177.511719 355.246094 L 216.960938 394.695312 L 172.582031 439.074219 Z M 133.132812 399.625 " style=" stroke:none;fill-rule:nonzero;fill:rgb(76.470588%,78.823529%,81.960784%);fill-opacity:1;" />
<path d="M 147.933594 572.207031 L 0.00390625 424.277344 L 14.796875 409.484375 C 55.644531 368.636719 121.878906 368.636719 162.726562 409.484375 C 203.574219 450.332031 203.574219 516.566406 162.726562 557.414062 Z M 147.933594 572.207031 " style=" stroke:none;fill-rule:nonzero;fill:rgb(81.568627%,84.313725%,87.45098%);fill-opacity:1;" />
<path d="M 166.601562 409.484375 C 165.960938 408.84375 165.261719 408.300781 164.628906 407.679688 C 172.546875 448.597656 159.609375 490.777344 130.113281 520.214844 L 114.964844 535.363281 L 151.808594 572.207031 L 166.601562 557.414062 C 207.449219 516.578125 207.460938 450.351562 166.621094 409.503906 C 166.621094 409.503906 166.613281 409.492188 166.601562 409.484375 Z M 166.601562 409.484375 " style=" stroke:none;fill-rule:nonzero;fill:rgb(76.470588%,78.823529%,81.960784%);fill-opacity:1;" />
<path d="M 325.4375 414.414062 L 414.195312 325.65625 L 571.980469 483.441406 L 483.222656 572.199219 Z M 325.4375 414.414062 " style=" stroke:none;fill-rule:nonzero;fill:rgb(16.470588%,56.470588%,87.058824%);fill-opacity:1;" />
<path d="M 355.035156 444 L 483.242188 572.207031 L 572 483.449219 L 532.550781 444 Z M 355.035156 444 " style=" stroke:none;fill-rule:nonzero;fill:rgb(13.72549%,47.45098%,72.941176%);fill-opacity:1;" />
<path d="M 39.449219 128.417969 L 157.796875 246.761719 L 246.554688 158.003906 L 216.96875 128.417969 Z M 39.449219 128.417969 " style=" stroke:none;fill-rule:nonzero;fill:rgb(13.72549%,47.45098%,72.941176%);fill-opacity:1;" />
<path d="M 176.671875 162.933594 L 214.078125 125.527344 L 200.132812 111.582031 L 162.726562 148.988281 L 137.222656 123.484375 L 174.628906 86.078125 L 160.683594 72.132812 L 123.277344 109.539062 L 97.773438 84.035156 L 135.179688 46.628906 L 121.238281 32.6875 L 83.832031 70.09375 L 51.355469 37.617188 L 37.410156 51.5625 L 69.886719 84.035156 L 32.480469 121.445312 L 46.421875 135.386719 L 83.832031 97.980469 L 109.332031 123.484375 L 71.925781 160.890625 L 85.871094 174.835938 L 123.277344 137.429688 L 148.78125 162.933594 L 111.375 200.339844 L 125.320312 214.285156 L 162.726562 176.878906 L 229.71875 243.871094 L 243.664062 229.925781 Z M 176.671875 162.933594 " style=" stroke:none;fill-rule:nonzero;fill:rgb(76.470588%,78.823529%,81.960784%);fill-opacity:1;" />
<path d="M 502.117188 488.378906 L 539.523438 450.972656 L 525.578125 437.027344 L 488.171875 474.433594 L 462.667969 448.933594 L 500.078125 411.523438 L 486.132812 397.582031 L 448.726562 434.988281 L 423.222656 409.484375 L 460.628906 372.078125 L 446.683594 358.132812 L 409.277344 395.539062 L 342.285156 328.546875 L 328.339844 342.492188 L 395.332031 409.484375 L 357.925781 446.890625 L 371.871094 460.835938 L 409.277344 423.429688 L 434.78125 448.933594 L 397.375 486.339844 L 411.316406 500.285156 L 448.726562 462.878906 L 474.226562 488.378906 L 436.820312 525.789062 L 450.765625 539.730469 L 488.171875 502.324219 L 520.648438 534.800781 L 534.59375 520.855469 Z M 502.117188 488.378906 " style=" stroke:none;fill-rule:nonzero;fill:rgb(76.470588%,78.823529%,81.960784%);fill-opacity:1;" />
<path d="M 228.476562 406.199219 L 246.554688 424.277344 L 463.023438 206.820312 L 445.441406 189.234375 Z M 228.476562 406.199219 " style=" stroke:none;fill-rule:nonzero;fill:rgb(76.470588%,78.823529%,81.960784%);fill-opacity:1;" />
<path d="M 414.207031 197.449219 C 392.421875 197.449219 374.761719 179.789062 374.761719 158.003906 C 374.761719 136.21875 392.421875 118.554688 414.207031 118.554688 C 435.992188 118.554688 453.65625 136.21875 453.65625 158.003906 C 453.65625 179.789062 435.992188 197.449219 414.207031 197.449219 Z M 414.207031 138.277344 C 403.308594 138.277344 394.484375 147.105469 394.484375 158 C 394.484375 168.898438 403.308594 177.726562 414.207031 177.726562 C 425.105469 177.726562 433.933594 168.898438 433.933594 158 C 433.933594 147.105469 425.105469 138.277344 414.207031 138.277344 Z M 414.207031 138.277344 " style=" stroke:none;fill-rule:nonzero;fill:rgb(65.882353%,69.803922%,74.901961%);fill-opacity:1;" />
<path d="M 348.0625 322.765625 L 362.007812 308.824219 L 263.386719 210.203125 L 249.441406 224.148438 L 267.125 241.832031 L 241.621094 267.332031 L 223.941406 249.652344 L 209.996094 263.59375 L 308.613281 362.214844 L 322.558594 348.269531 L 304.878906 330.585938 L 330.378906 305.085938 Z M 281.070312 255.773438 L 291.78125 266.484375 L 266.277344 291.988281 L 255.566406 281.277344 Z M 290.933594 316.644531 L 280.222656 305.933594 L 305.726562 280.429688 L 316.4375 291.140625 Z M 290.933594 316.644531 " style=" stroke:none;fill-rule:nonzero;fill:rgb(65.882353%,69.803922%,74.901961%);fill-opacity:1;" />
<path d="M 170.542969 303.050781 L 184.488281 289.105469 L 283.105469 387.722656 L 269.160156 401.667969 Z M 170.542969 303.050781 " style=" stroke:none;fill-rule:nonzero;fill:rgb(65.882353%,69.803922%,74.901961%);fill-opacity:1;" />
</g>
</svg>