<?xml version="1.0" encoding="iso-8859-1"?>
<!-- Generator: Adobe Illustrator 19.0.0, SVG Export Plug-In . SVG Version: 6.00 Build 0)  -->
<svg version="1.1" id="Layer_1" xmlns="http://www.w3.org/2000/svg" xmlns:xlink="http://www.w3.org/1999/xlink" x="0px" y="0px"
	 viewBox="0 0 512 512" style="enable-background:new 0 0 512 512;" xml:space="preserve">
<rect x="297.406" y="171.727" transform="matrix(-0.7071 -0.7071 0.7071 -0.7071 375.7425 568.418)" style="fill:#8B7E7F;" width="16.376" height="69.327"/>
<polygon style="fill:#6FC5D6;" points="347.868,205.049 503.812,49.105 421.98,49.105 266.036,205.049 "/>
<polygon style="fill:#FFD24D;" points="356.359,256.001 256.001,155.641 205.821,205.821 240.56,271.44 306.18,306.181 "/>
<rect x="195.418" y="210.121" transform="matrix(-0.7071 0.7071 -0.7071 -0.7071 592.9293 316.5718)" style="fill:#FEE191;" width="70.964" height="141.929"/>
<g>
	<path style="fill:#C2B8B9;" d="M105.461,205.821c27.714,27.714,72.646,27.714,100.36,0s27.714-72.646,0-100.36L105.461,205.821z"/>
	<path style="fill:#C2B8B9;" d="M306.181,406.539c-27.714-27.714-27.714-72.646,0-100.36c27.714-27.714,72.646-27.714,100.36,0
		L306.181,406.539z"/>
</g>
<path style="fill:#8B7E7F;" d="M236.7,275.3c-3.198-3.198-8.383-3.198-11.58,0l-49.022,49.022l11.58,11.58L236.7,286.88
	C239.898,283.683,239.898,278.498,236.7,275.3z"/>
<polygon style="fill:#6FC5D6;" points="90.021,462.896 245.964,306.953 164.133,306.953 8.188,462.896 "/>
<path d="M511.377,45.971c-1.268-3.06-4.254-5.055-7.565-5.055h-81.833c-2.172,0-4.255,0.862-5.79,2.399L303.092,156.413
	c-3.198,3.198-3.198,8.383,0,11.579c3.198,3.198,8.383,3.198,11.579,0l110.7-110.699h58.673L344.008,197.329
	c-3.198,3.198-3.198,8.383,0,11.579c1.598,1.598,3.695,2.399,5.79,2.399c2.095,0,4.191-0.799,5.79-2.399L509.602,54.894
	C511.943,52.553,512.644,49.032,511.377,45.971z"/>
<path d="M346.003,277.937l16.146-16.147c3.198-3.198,3.198-8.383,0-11.579l-100.36-100.36c-3.198-3.198-8.383-3.198-11.579,0
	l-16.146,16.146c3.084-23.565-4.388-48.261-22.453-66.326c-3.198-3.198-8.383-3.198-11.579,0l-44.39,44.39l-25.573-25.573
	c-3.198-3.198-8.383-3.198-11.579,0c-3.198,3.198-3.198,8.383,0,11.579l25.573,25.573l-44.39,44.39
	c-3.198,3.198-3.198,8.383,0,11.579c14.95,14.951,34.826,23.184,55.97,23.184c3.478,0,6.916-0.245,10.31-0.683l-16.1,16.1
	c-3.198,3.198-3.198,8.383,0,11.579l27.02,27.02c3.198,3.198,8.383,3.198,11.579,0c3.198-3.198,3.198-8.383,0-11.579l-21.229-21.229
	l88.78-88.78l88.78,88.78L256,344.78l-1.93-1.93c-3.198-3.198-8.383-3.198-11.579,0c-3.198,3.198-3.198,8.383,0,11.579l7.72,7.72
	c1.598,1.598,3.695,2.399,5.79,2.399c2.095,0,4.191-0.799,5.79-2.399l16.1-16.1c-0.439,3.393-0.683,6.832-0.683,10.31
	c0,21.143,8.233,41.02,23.184,55.97c1.598,1.598,3.695,2.399,5.79,2.399c2.095,0,4.191-0.799,5.79-2.399l44.39-44.39l25.573,25.573
	c1.598,1.598,3.695,2.399,5.79,2.399c2.095,0,4.191-0.799,5.79-2.399c3.198-3.198,3.198-8.383,0-11.579l-25.573-25.573l44.39-44.39
	c3.198-3.198,3.198-8.383,0-11.579C394.265,282.325,369.569,274.852,346.003,277.937z M155.641,218.418
	c-14.007,0-27.315-4.557-38.228-12.968l88.032-88.033c18.906,24.598,17.101,60.099-5.414,82.614
	C188.173,211.888,172.408,218.418,155.641,218.418z M306.552,394.588c-8.412-10.913-12.968-24.221-12.968-38.228
	c0-16.767,6.53-32.533,18.387-44.39c12.24-12.24,28.313-18.357,44.39-18.357c13.498,0,26.998,4.315,38.224,12.943L306.552,394.588z"
	/>
<path d="M283.02,291.208c2.095,0,4.191-0.799,5.79-2.399c3.198-3.198,3.198-8.383,0-11.579l-54.039-54.039
	c-3.198-3.198-8.383-3.198-11.579,0c-3.198,3.198-3.198,8.383,0,11.579l54.039,54.039
	C278.829,290.409,280.925,291.208,283.02,291.208z"/>
<path d="M253.529,303.818c-1.268-3.06-4.254-5.055-7.565-5.055h-21.148l11.884-11.884c3.198-3.198,3.198-8.383,0-11.579
	c-3.198-3.198-8.383-3.198-11.579,0l-23.463,23.463h-37.524c-2.172,0-4.255,0.862-5.79,2.399L2.399,457.106
	c-2.342,2.342-3.043,5.864-1.775,8.923c1.268,3.06,4.254,5.055,7.565,5.055h81.833c2.172,0,4.255-0.863,5.79-2.399l155.943-155.943
	C254.096,310.4,254.796,306.878,253.529,303.818z M86.629,454.707H27.957l139.568-139.566h58.672L86.629,454.707z"/>
<g>
</g>
<g>
</g>
<g>
</g>
<g>
</g>
<g>
</g>
<g>
</g>
<g>
</g>
<g>
</g>
<g>
</g>
<g>
</g>
<g>
</g>
<g>
</g>
<g>
</g>
<g>
</g>
<g>
</g>
</svg>
