<svg xmlns="http://www.w3.org/2000/svg" height="922pt" version="1.1" viewBox="-107 0 922 922.49665" width="922pt">
<g id="surface1">
<path d="M 662.378906 511.351562 L 640.539062 529.464844 C 568.339844 579.894531 456.492188 566.242188 355.417969 501.667969 C 361.757812 498.601562 367.578125 494.554688 372.648438 489.675781 C 386.683594 475.308594 394.289062 455.867188 393.753906 435.796875 C 393.070312 409.800781 383.800781 384.761719 367.394531 364.59375 L 597.0625 134.84375 C 715.078125 261.691406 744.445312 428.371094 662.378906 511.351562 Z M 360.953125 435.792969 C 361.335938 447.121094 357.1875 458.113281 349.429688 466.363281 C 341.703125 473.523438 331.523438 477.457031 321 477.363281 C 308.613281 467.675781 296.734375 457.371094 285.386719 446.480469 L 343.84375 388.035156 C 354.265625 401.84375 360.191406 418.511719 360.808594 435.796875 L 360.953125 435.796875 Z M 262.539062 422.933594 C 250.808594 410.191406 239.761719 396.824219 229.46875 382.890625 C 229.996094 373.382812 233.871094 364.363281 240.40625 357.429688 C 258.230469 339.65625 292.777344 343.449219 320.96875 364.519531 Z M 620.507812 111.640625 L 652.945312 79.191406 C 659.238281 82.316406 666.097656 84.132812 673.109375 84.488281 L 675.675781 84.488281 C 681.289062 84.425781 686.851562 83.421875 692.144531 81.554688 L 692.144531 209.804688 C 672.402344 174.191406 648.285156 141.191406 620.351562 111.558594 Z M 677.109375 5.613281 C 682.398438 0.441406 690.253906 -1.070312 697.085938 1.742188 C 703.921875 4.574219 708.398438 11.195312 708.492188 18.589844 C 708.503906 23.492188 706.566406 28.199219 703.085938 31.652344 L 688.613281 46.121094 C 684.90625 49.820312 679.785156 51.777344 674.554688 51.492188 C 669.316406 51.199219 664.449219 48.6875 661.171875 44.597656 C 655.480469 36.441406 656.644531 25.34375 663.90625 18.542969 Z M 627.648438 16.605469 C 623.230469 29.394531 623.941406 43.417969 629.628906 55.703125 L 597.300781 88.039062 C 567.960938 60.3125 535.328125 36.324219 500.121094 16.609375 L 627.648438 16.609375 Z M 574.007812 111.328125 L 344.234375 341.074219 C 302.28125 307.378906 247.660156 303.484375 216.976562 334.109375 C 212.835938 338.386719 209.265625 343.1875 206.386719 348.390625 C 173.453125 296.464844 155.019531 236.679688 152.984375 175.230469 C 151.1875 128.140625 168.320312 82.277344 200.550781 47.902344 C 234.332031 15.550781 279.800781 -1.683594 326.546875 0.128906 C 408.199219 0.128906 499.589844 41.464844 574.007812 111.328125 Z M 221.332031 632.925781 C 231.050781 638.191406 241.101562 642.808594 251.195312 647.132812 L 254.359375 648.386719 C 268.144531 654.179688 282.300781 659.078125 296.71875 663.046875 L 296.71875 708.371094 L 197.898438 708.371094 L 197.898438 619.023438 C 201.839844 621.578125 205.929688 623.800781 209.96875 626.1875 C 214.007812 628.570312 217.464844 630.863281 221.332031 632.925781 Z M 197.898438 741.316406 L 296.71875 741.316406 L 296.71875 790.726562 L 197.898438 790.726562 Z M 164.960938 708.371094 L 127.890625 708.371094 L 164.960938 658.964844 Z M 103.183594 741.316406 L 164.960938 741.316406 L 164.960938 790.726562 L 66.136719 790.726562 Z M 494.367188 922.496094 L 0.25 922.496094 L 0.25 823.671875 L 494.367188 823.671875 Z M 329.667969 790.726562 L 329.667969 741.316406 L 391.433594 741.316406 L 428.492188 790.726562 Z M 366.71875 708.371094 L 329.667969 708.371094 L 329.667969 669.550781 C 332.636719 670.0625 335.625 670.449219 338.609375 670.867188 Z M 303.90625 630.378906 C 300.882812 629.546875 297.867188 628.738281 294.894531 627.777344 C 288.75 625.917969 282.65625 623.90625 276.628906 621.675781 C 271.210938 619.644531 265.871094 617.382812 260.558594 615.089844 C 256.898438 613.4375 253.207031 612.066406 249.597656 610.34375 C 229.03125 600.347656 209.574219 588.191406 191.550781 574.101562 L 191.3125 573.976562 C 179.089844 564.582031 167.574219 554.320312 156.832031 543.269531 C 50.304688 430.941406 36.679688 259.476562 124.125 131.734375 C 123.769531 133.773438 123.609375 135.902344 123.320312 137.957031 C 123.023438 140.019531 122.707031 142.542969 122.441406 144.855469 C 121.636719 151.835938 121.117188 158.898438 120.875 166.058594 C 120.875 167.316406 120.71875 168.523438 120.699219 169.777344 C 120.558594 178.011719 120.84375 186.488281 121.4375 194.976562 C 121.605469 197.332031 121.859375 199.710938 122.082031 202.0625 C 122.707031 208.78125 123.558594 215.542969 124.613281 222.335938 C 124.980469 224.628906 125.289062 226.914062 125.707031 229.230469 C 127.25 237.886719 129.113281 246.597656 131.386719 255.363281 C 131.851562 257.148438 132.414062 258.910156 132.90625 260.683594 C 134.898438 267.949219 137.128906 275.21875 139.59375 282.480469 C 140.484375 285.121094 141.386719 287.742188 142.34375 290.375 C 145.257812 298.402344 148.402344 306.441406 151.898438 314.441406 C 152.308594 315.394531 152.644531 316.351562 153.0625 317.289062 C 156.992188 326.125 161.292969 334.902344 165.941406 343.652344 C 167.265625 346.148438 168.648438 348.585938 170.019531 351.125 C 173.835938 358.042969 177.859375 364.917969 182.09375 371.765625 C 183.40625 373.882812 184.652344 376.03125 186.003906 378.148438 C 191.492188 386.714844 197.328125 395.203125 203.496094 403.589844 C 204.847656 405.425781 206.3125 407.238281 207.695312 409.070312 C 212.835938 415.863281 218.203125 422.574219 223.785156 429.214844 L 224.324219 429.863281 L 224.792969 430.464844 C 226.410156 432.363281 228.054688 434.25 229.742188 436.125 C 236.863281 444.367188 244.210938 452.386719 252.007812 460.242188 C 257.59375 465.867188 263.273438 471.328125 269.035156 476.601562 C 271.027344 478.417969 273.078125 480.15625 275.085938 481.957031 L 275.800781 482.601562 C 276.925781 483.582031 278.027344 484.570312 279.101562 485.542969 C 281.539062 487.675781 284.042969 489.835938 286.445312 491.898438 C 288.859375 493.957031 291.386719 495.964844 293.96875 497.996094 C 297.402344 500.765625 300.84375 503.515625 304.316406 506.230469 C 307.085938 508.359375 309.878906 510.363281 312.667969 512.410156 C 315.96875 514.777344 319.257812 517.132812 322.472656 519.402344 C 325.480469 521.480469 328.496094 523.511719 331.542969 525.5 C 334.585938 527.488281 337.683594 529.46875 340.828125 531.457031 C 344.128906 533.484375 347.390625 535.464844 350.613281 537.425781 C 353.460938 539.070312 356.324219 540.714844 359.164062 542.367188 C 362.738281 544.371094 366.3125 546.34375 369.921875 548.265625 C 372.34375 549.535156 374.855469 550.746094 377.234375 551.96875 C 381.25 553.988281 385.292969 556.019531 389.328125 557.890625 C 390.976562 558.683594 392.71875 559.390625 394.414062 560.152344 C 446.972656 585.234375 505.230469 595.988281 563.285156 591.300781 C 486.203125 640.335938 392.003906 654.527344 303.90625 630.378906 Z M 303.90625 630.378906 " style=" stroke:none;fill-rule:nonzero;fill:rgb(0%,0%,0%);fill-opacity:1;" />
</g>
</svg>